<svg width="208" height="110" viewBox="0 0 208 110" fill="none" xmlns="http://www.w3.org/2000/svg">
<path d="M84.4445 50.2222H95V60.7777H84.4445V50.2222Z" fill="white"/>
<path d="M21.1111 18.5555H31.6666V29.1111H21.1111V18.5555Z" fill="white"/>
<path d="M0 18.5555H10.5556V29.1111H0V18.5555Z" fill="white"/>
<path d="M0 92.4445H95V103H0V92.4445Z" fill="#F59E0B"/>
<path d="M0 71.3334H84.4444V81.8889H0V71.3334Z" fill="#F59E0B"/>
<path d="M0 50.2222H73.8889V60.7777H0V50.2222Z" fill="#F59E0B"/>
<path d="M42.2222 29.1111H84.4445V39.6666H42.2222V29.1111Z" fill="#F59E0B"/>
<path d="M42.2222 8H95V18.5556H42.2222V8Z" fill="#F59E0B"/>
<path d="M0 8H31.6667V18.5556H0V8Z" fill="white"/>
<path d="M0 29.1111H31.6667V39.6666H0V29.1111Z" fill="white"/>
<path d="M109.01 30V13.1732H100.597V8.51898H122.078V13.1732H113.664V30H109.01ZM129.56 30C128.764 30 128.028 29.8011 127.352 29.4033C126.676 29.0055 126.139 28.4685 125.741 27.7922C125.343 27.116 125.144 26.3801 125.144 25.5845V12.9345C125.144 12.119 125.343 11.3831 125.741 10.7268C126.139 10.0505 126.676 9.51347 127.352 9.11568C128.028 8.71788 128.764 8.51898 129.56 8.51898H142.21C143.005 8.51898 143.731 8.71788 144.388 9.11568C145.064 9.51347 145.601 10.0505 145.999 10.7268C146.417 11.3831 146.625 12.119 146.625 12.9345V25.5845C146.625 26.3801 146.417 27.116 145.999 27.7922C145.601 28.4685 145.064 29.0055 144.388 29.4033C143.731 29.8011 143.005 30 142.21 30H129.56ZM129.769 25.3458H141.941V13.1732H129.769V25.3458ZM150.836 30V8.51898H155.49V16.9324H159.697L166.738 8.51898H171.571V10.1301L163.903 19.2595L171.571 28.3889V30H166.738L159.697 21.5866H155.49V30H150.836ZM179.831 30C179.036 30 178.3 29.8011 177.624 29.4033C176.947 29.0055 176.41 28.4685 176.013 27.7922C175.615 27.116 175.416 26.3801 175.416 25.5845V12.9345C175.416 12.119 175.615 11.3831 176.013 10.7268C176.41 10.0505 176.947 9.51347 177.624 9.11568C178.3 8.71788 179.036 8.51898 179.831 8.51898H192.481C193.277 8.51898 194.003 8.71788 194.659 9.11568C195.336 9.51347 195.873 10.0505 196.27 10.7268C196.688 11.3831 196.897 12.119 196.897 12.9345V25.5845C196.897 26.3801 196.688 27.116 196.27 27.7922C195.873 28.4685 195.336 29.0055 194.659 29.4033C194.003 29.8011 193.277 30 192.481 30H179.831ZM180.04 25.3458H192.213V13.1732H180.04V25.3458ZM101.76 67V45.519H117.99C118.786 45.519 119.512 45.7179 120.168 46.1157C120.845 46.5135 121.382 47.0505 121.779 47.7268C122.197 48.3831 122.406 49.119 122.406 49.9345V53.9622C122.406 54.2208 122.386 54.4694 122.346 54.7081C122.326 54.9269 122.277 55.1357 122.197 55.3346C122.495 55.7125 122.744 56.1501 122.943 56.6473C123.142 57.1446 123.241 57.6418 123.241 58.1391V62.5845C123.241 63.3801 123.032 64.116 122.615 64.7922C122.217 65.4685 121.68 66.0055 121.004 66.4033C120.347 66.8011 119.611 67 118.796 67H101.76ZM106.385 62.3458H118.557V58.4076H106.385V62.3458ZM106.385 53.7534H117.722V50.1732H106.385V53.7534ZM130.85 67C130.054 67 129.319 66.8011 128.642 66.4033C127.966 66.0055 127.429 65.4685 127.031 64.7922C126.633 64.116 126.435 63.3801 126.435 62.5845V45.519H131.059V62.3458H143.231V45.519H147.916V62.5845C147.916 63.3801 147.707 64.116 147.289 64.7922C146.891 65.4685 146.354 66.0055 145.678 66.4033C145.022 66.8011 144.296 67 143.5 67H130.85ZM151.231 67V45.519H155.885V53.9324H160.092L167.133 45.519H171.966V47.1301L164.299 56.2595L171.966 65.3889V67H167.133L160.092 58.5866H155.885V67H151.231ZM179.332 67C178.536 67 177.8 66.8011 177.124 66.4033C176.447 66.0055 175.91 65.4685 175.513 64.7922C175.115 64.116 174.916 63.3801 174.916 62.5845V45.519H179.54V62.3458H191.713V45.519H196.397V62.5845C196.397 63.3801 196.188 64.116 195.77 64.7922C195.373 65.4685 194.836 66.0055 194.159 66.4033C193.503 66.8011 192.777 67 191.981 67H179.332ZM104.535 104C103.739 104 103.003 103.801 102.327 103.403C101.651 103.006 101.114 102.468 100.716 101.792C100.318 101.116 100.119 100.38 100.119 99.5845V96.8098H104.744V99.3458H116.916V82.519H121.6V99.5845C121.6 100.38 121.392 101.116 120.974 101.792C120.576 102.468 120.039 103.006 119.363 103.403C118.706 103.801 117.98 104 117.185 104H104.535ZM125.606 104V86.9345C125.606 86.119 125.805 85.3831 126.203 84.7268C126.601 84.0505 127.138 83.5135 127.814 83.1157C128.49 82.7179 129.226 82.519 130.022 82.519H142.642C143.457 82.519 144.193 82.7179 144.85 83.1157C145.526 83.5135 146.063 84.0505 146.461 84.7268C146.879 85.3831 147.087 86.119 147.087 86.9345V104H142.403V97.0783H130.231V104H125.606ZM130.231 92.4241H142.403V87.1732H130.231V92.4241ZM158.467 104V95.9745L148.532 82.519H154.052L160.794 90.9921L167.507 82.519H173.086L163.121 96.0043V104H158.467ZM175.165 104V86.9345C175.165 86.119 175.364 85.3831 175.761 84.7268C176.159 84.0505 176.696 83.5135 177.372 83.1157C178.049 82.7179 178.785 82.519 179.58 82.519H192.2C193.016 82.519 193.752 82.7179 194.408 83.1157C195.084 83.5135 195.621 84.0505 196.019 84.7268C196.437 85.3831 196.646 86.119 196.646 86.9345V104H191.962V97.0783H179.789V104H175.165ZM179.789 92.4241H191.962V87.1732H179.789V92.4241Z" fill="white"/>
</svg>
